<svg width="88" height="50" viewBox="0 0 88 50" fill="none" xmlns="http://www.w3.org/2000/svg">
<path d="M32.7404 40.0967C32.7382 40.0737 32.7128 39.9398 32.7195 39.8082C32.7397 39.4193 32.6232 39.0914 32.3806 38.7783C32.0313 38.3292 32.0693 37.7752 32.0484 37.2435C32.0417 37.0702 32.0574 36.8962 32.0522 36.723C32.035 36.1467 31.8327 35.8998 31.2654 35.8425C30.3644 35.7503 29.7597 35.2871 29.3984 34.4721C29.2409 34.1166 28.9625 33.9077 28.5609 33.8883C28.2108 33.8712 27.9689 33.7359 28.0465 33.341C28.1615 32.7588 27.8435 32.4643 27.3642 32.2799C25.9407 31.7318 24.5164 31.1838 23.0847 30.6588C22.8114 30.5584 22.5002 30.5346 22.2053 30.5279C21.6066 30.5131 21.3454 30.7577 21.2379 31.3965C20.896 31.3749 20.6056 31.4649 20.4824 31.8345C20.4697 31.8724 20.4175 31.9066 20.3757 31.9237C19.8292 32.149 19.7643 32.2553 19.8121 32.8473C19.827 33.0317 19.836 33.2168 19.8487 33.4079C19.6113 33.5381 19.4463 33.4295 19.3388 33.2525C19.2373 33.086 19.1634 32.8963 19.1111 32.7075C18.9267 32.0427 18.4915 31.6493 17.8264 31.5036C17.5353 31.4403 17.2382 31.4069 16.9441 31.3571C16.2775 31.244 16.1416 31.0767 16.1237 30.3926C16.1177 30.1457 16.0946 29.8981 16.055 29.6549C15.9938 29.2772 15.7758 29.0177 15.3922 28.9396C15.0226 28.8645 14.8077 28.6429 14.6822 28.3053C14.4486 27.6762 13.9679 27.4159 13.3199 27.4115C13.1206 27.41 12.9213 27.4159 12.7227 27.407C12.1487 27.3817 12.0083 27.4702 11.8008 27.9989C11.7568 28.1119 11.7105 28.2235 11.5896 28.3358C11.5612 28.103 11.5328 27.8695 11.5045 27.6368C11.4276 27.0069 11.0633 26.7556 10.4661 26.9712C10.1556 27.0835 9.88161 27.294 9.58227 27.4412C9.36729 27.5468 9.1426 27.6427 8.91193 27.7037C8.62006 27.7803 8.40507 28.0331 8.45583 28.3715C8.49913 28.6622 8.59318 28.9485 8.685 29.2296C8.87088 29.7962 8.89476 30.3383 8.56109 30.8722C8.45434 31.0425 8.43717 31.2686 8.36103 31.5303C8.10349 31.4277 7.82282 31.3452 7.56976 31.2106C6.75236 30.7756 6.00214 31.1793 5.67518 31.7021C5.47065 32.03 5.37286 32.4227 5.21013 32.7788C5.16384 32.88 5.07203 33.0123 4.98021 33.0317C4.14415 33.2101 3.95529 33.4719 4.10085 34.327C4.13967 34.5561 4.2076 34.7799 4.26806 35.0283C3.93588 35.1145 3.79031 34.916 3.67909 34.6929C3.35138 34.0363 3.37602 33.3261 3.37602 32.619C3.37602 32.1743 3.37975 31.7266 3.33123 31.2857C3.28719 30.8856 3.05951 30.5807 2.63401 30.5205C2.26301 30.4684 2.12118 30.229 2.08236 29.9182C2.03011 29.5017 1.99726 29.0801 1.99577 28.6607C1.99428 28.1424 1.84274 27.7357 1.39784 27.4189C0.908145 27.0701 0.916356 27.0382 1.17539 26.5214C1.50309 25.8677 1.6815 25.2126 1.3844 24.4913C1.31274 24.3173 1.34782 24.0994 1.33439 23.9016C1.3747 23.8897 1.41501 23.8778 1.45606 23.8659C1.53967 23.976 1.63149 24.0801 1.70464 24.1961C1.98159 24.64 2.27645 24.7292 2.73106 24.4682C2.98859 24.3203 3.22672 24.1381 3.47231 23.9693C3.72015 23.799 3.88586 23.831 4.02247 24.1232C4.08443 24.2556 4.24567 24.4035 4.37705 24.4192C4.47036 24.4303 4.62264 24.2504 4.68983 24.1247C4.82046 23.88 5.0138 23.7797 5.26984 23.8191C5.55127 23.8629 5.82747 23.9373 6.10441 24.0057C6.71503 24.1559 7.07409 23.9737 7.24578 23.3811C7.35925 22.9899 7.44883 22.5891 7.50556 22.1861C7.52721 22.0314 7.42569 21.8596 7.38164 21.6953C7.27564 21.296 7.17263 20.8952 7.06513 20.4959C6.98974 20.2148 6.89494 19.9382 6.83671 19.6541C6.80461 19.4994 6.77998 19.312 6.8397 19.1782C6.9442 18.9439 7.11142 18.7365 7.26221 18.5245C7.5817 18.0739 7.6041 17.7177 7.30625 17.253C7.15247 17.0135 6.94719 16.8031 6.8173 16.5532C6.7546 16.4335 6.75908 16.2208 6.82775 16.1048C6.92554 15.9398 7.10022 15.8951 7.30774 16.0223C7.731 16.2826 8.20501 16.2959 8.67903 16.2052C9.16499 16.1123 9.36281 15.878 9.28965 15.3991C9.22396 14.9671 9.36878 14.7366 9.76591 14.5663C10.387 14.3008 10.5594 13.932 10.3691 13.2843C10.2601 12.9125 10.0862 12.5563 9.90998 12.2083C9.76591 11.9235 9.74501 11.6974 10.0451 11.5086C10.5012 11.2208 10.92 10.8943 11.1432 10.379C11.1932 10.263 11.2499 10.1507 11.3335 10.0652C11.7105 10.6899 11.8337 10.7077 12.2995 10.295C12.4197 10.1887 12.5495 10.092 12.6794 9.9968C12.9646 9.78785 13.2408 9.83321 13.4968 10.0481C13.6387 10.1678 13.7476 10.3329 13.9014 10.4296C14.0328 10.5114 14.2426 10.5976 14.3553 10.5463C14.4673 10.495 14.5322 10.2801 14.5591 10.1262C14.5882 9.95962 14.5128 9.77223 14.5539 9.61161C14.5874 9.47776 14.7046 9.30153 14.8196 9.26955C14.9502 9.23311 15.1301 9.31566 15.2697 9.38481C15.5093 9.50379 15.7213 9.73877 15.9662 9.77149C16.6403 9.86221 17.324 9.88972 18.0056 9.91055C18.34 9.92096 18.4602 9.66961 18.4281 9.37812C18.3893 9.0249 18.4975 8.85908 18.8723 8.80851C19.0305 8.78695 19.2246 8.60922 19.2977 8.45307C19.6456 7.71763 20.2219 7.26998 20.9818 7.03277C21.5133 6.86694 22.0605 6.74053 22.577 6.53826C22.8368 6.43639 23.069 6.22743 23.2698 6.02443C23.4818 5.80952 23.6423 5.54405 23.8349 5.28825C24.2104 5.53216 24.3037 6.10697 24.771 5.9813C24.9397 6.26759 25.0628 6.52711 25.2315 6.75242C25.607 7.25213 25.6085 7.40606 25.3458 7.96228C25.242 8.18239 25.2487 8.46199 25.239 8.7163C25.2293 8.9498 25.2845 9.18552 25.2771 9.41976C25.2614 9.91798 25.0479 10.153 24.5724 10.2965C24.3903 10.3515 24.2223 10.4616 24.0588 10.5649C23.905 10.6623 23.7654 10.7828 23.6005 10.9085C23.2616 10.5203 23.2623 10.0652 23.2138 9.63095C23.1526 9.09034 23.1406 8.5423 23.0421 8.00913C23.007 7.81951 22.7823 7.66409 22.6442 7.49306C22.4822 7.63955 22.3083 7.77563 22.1635 7.93849C22.0948 8.01582 22.0784 8.14224 22.0441 8.24783C21.9403 8.57204 21.9522 8.96318 21.4551 9.01895C21.3244 9.03383 21.211 9.24873 21.102 9.38109C20.828 9.71274 20.5518 10.0437 20.2936 10.3872C20.1241 10.6118 19.942 10.8415 19.8404 11.0981C19.6911 11.4781 19.9442 11.9466 20.3361 12.0402C20.463 12.0707 20.6474 11.9919 20.7653 11.9079C20.9945 11.7443 21.1946 11.5413 21.4864 11.2847C21.5402 11.5755 21.5835 11.7822 21.6156 11.9897C21.676 12.3883 21.8343 12.5474 22.2367 12.511C22.5554 12.482 22.8659 12.3719 23.1847 12.3243C23.5355 12.2715 23.8841 12.1808 24.0446 12.6909C24.1559 13.0449 25.0151 13.1802 25.4719 12.9846C25.8519 12.8218 26.0698 12.5162 26.2423 12.1622C26.3207 12.0016 26.4177 11.8499 26.5058 11.6945C26.5521 11.7064 26.5984 11.7183 26.6446 11.7302C26.6185 12.0135 26.6536 12.3198 26.5543 12.5742C26.3542 13.0858 26.4886 13.4553 26.9462 13.8093C27.3963 14.1573 27.8293 14.1529 28.3451 13.8264C28.9416 14.4748 29.4544 15.3597 30.5913 14.7797C30.8966 15.2757 31.022 15.91 31.6513 16.1138C32.3418 16.3376 32.715 15.7985 33.192 15.4006C33.5048 15.7271 33.8445 16.0201 34.0983 16.3748C34.2237 16.5495 34.2632 16.8544 34.2125 17.07C34.1289 17.4233 34.1796 17.7259 34.3297 18.036C34.5693 18.532 35.0403 18.5818 35.3382 18.1111C35.5345 17.801 35.6517 17.4418 35.8234 17.1147C35.8906 16.9868 36.01 16.8849 36.1063 16.7719C36.2795 16.5688 36.5303 16.3941 36.6147 16.1599C36.9409 15.2504 37.7195 14.8749 38.4689 14.4533C38.495 14.4741 38.5204 14.4957 38.5466 14.5165C38.3637 14.7515 38.1554 14.9716 38.0054 15.2259C37.8934 15.4155 37.7695 15.6639 37.8023 15.8609C37.8665 16.2409 37.7657 16.5465 37.5642 16.8388C37.3731 17.1161 37.2671 17.3928 37.3567 17.7438C37.3858 17.8583 37.2835 18.0442 37.1857 18.1446C36.8535 18.4866 36.7871 18.8227 37.0357 19.0904C37.294 19.3678 37.7583 19.3566 38.0718 19.0503C38.4659 18.6651 38.5809 18.1602 38.6772 17.6419C38.7026 17.5036 38.816 17.3199 38.9362 17.2708C39.6536 16.9778 39.8671 16.6871 39.888 15.8981C39.8917 15.7434 39.9223 15.5895 39.941 15.4348C39.9813 15.4371 40.0223 15.44 40.0627 15.4423C40.0627 15.7167 40.0462 15.9925 40.0686 16.2647C40.0813 16.4201 40.1403 16.6901 40.2082 16.6997C40.3769 16.7243 40.58 16.6581 40.7375 16.5718C40.8584 16.5056 40.9323 16.3532 41.0868 16.1673C41.3489 16.4923 41.5967 16.8001 41.8609 17.128C41.8385 17.1764 41.7878 17.2403 41.7811 17.308C41.7602 17.5259 41.6639 17.8367 41.7684 17.9423C41.9117 18.0873 42.2163 18.1327 42.4454 18.12C42.7582 18.1022 42.8418 17.8278 42.7888 17.5653C42.7134 17.1905 42.5387 16.8313 42.4984 16.4558C42.4619 16.116 42.5156 15.7553 42.594 15.4185C42.6418 15.211 43.3427 15.2125 43.5816 15.4036C43.7652 15.5508 43.9302 15.7241 44.1243 15.8557C44.4968 16.1078 44.8267 15.9799 44.9521 15.5464C45.0275 15.2869 45.0521 15.0073 45.1626 14.7648C45.2604 14.5514 45.4545 14.3841 45.5889 14.1848C45.6837 14.0443 45.7762 13.8918 45.824 13.7305C45.9016 13.4672 46.0383 13.4211 46.2637 13.5483C46.2958 13.5669 46.3309 13.581 46.363 13.5989C46.9945 13.9513 47.1632 13.8874 47.3782 13.2107C47.3894 13.1765 47.408 13.1445 47.4431 13.0672C47.6193 13.523 47.9911 13.6457 48.3897 13.6375C48.5673 13.6338 48.8294 13.5096 48.9003 13.3646C49.0794 13.0017 49.3765 12.9445 49.7027 12.9586C50.0603 12.9735 50.2768 12.8426 50.3514 12.4953C50.4321 12.1213 50.5104 11.7465 50.5813 11.3703C50.6396 11.0587 50.8269 11.0133 51.0673 11.1501C51.2704 11.2654 51.4585 11.4119 51.6339 11.5658C51.6929 11.6179 51.7272 11.7406 51.7153 11.8224C51.6339 12.3593 51.7847 12.5838 52.3319 12.6879C52.4767 12.7154 52.6275 12.714 52.7745 12.7296C52.9171 12.7452 53.0597 12.7668 53.2508 12.792C53.1746 12.9727 53.1127 13.1036 53.0642 13.239C52.9104 13.6665 52.7917 14.1097 52.6036 14.5209C52.4192 14.924 52.1661 15.2958 51.9407 15.6802C51.7466 16.0119 51.5398 16.3361 51.3562 16.673C51.2547 16.8596 51.1569 17.1102 51.4025 17.2262C51.5339 17.2879 51.7668 17.2046 51.922 17.1251C52.0706 17.05 52.1923 16.9057 52.3005 16.7719C52.5849 16.4209 52.9343 16.371 53.3381 16.5108C53.5143 16.5718 53.6897 16.6343 53.8681 16.6871C54.4078 16.8484 54.6945 16.6938 54.8572 16.1606C54.8751 16.1019 54.899 16.0446 54.9356 15.9435C55.1439 16.029 55.3461 16.1086 55.5455 16.1941C55.9829 16.3807 56.4203 16.432 56.8891 16.2848C57.0772 16.226 57.3064 16.2409 57.5042 16.2826C57.7558 16.3354 57.8857 16.2655 57.9417 16.0238C57.9857 15.8312 57.9865 15.6044 58.0947 15.4564C58.2141 15.2928 58.4246 15.1805 58.6187 15.1002C58.6516 15.0868 58.8195 15.3345 58.889 15.4787C59.2876 16.3026 59.9184 16.9005 60.7335 17.2879C61.1135 17.4694 61.4569 17.224 61.483 16.7867C61.5009 16.4833 61.4494 16.1762 61.4262 15.8245C61.686 15.9435 61.9204 16.0669 62.166 16.1599C62.6356 16.3376 62.7938 16.2729 63.0387 15.8386C63.182 15.585 63.4821 15.5382 63.7329 15.6906C63.874 15.7769 64.1248 15.8855 64.2039 15.8252C64.3293 15.7293 64.3875 15.5047 64.4092 15.327C64.4338 15.1218 64.3786 14.9084 64.3726 14.6979C64.3562 14.1298 64.5772 13.8688 65.1154 13.697C65.4737 13.5825 65.8096 13.3981 66.1582 13.2523C66.2164 13.2278 66.2971 13.2196 66.3568 13.239C66.6434 13.3297 66.8733 13.2211 66.9868 12.9817C67.1652 12.6047 67.4504 12.6292 67.7654 12.7006C68.7276 12.9199 68.75 12.9095 69.1397 12.006C69.1934 11.8811 69.2583 11.7599 69.3016 11.6305C69.4039 11.3242 69.6428 11.2319 69.9205 11.2825C70.4445 11.3792 70.9626 11.5101 71.4821 11.632C71.5389 11.6454 71.5911 11.6885 71.6396 11.7257C72.0502 12.0402 72.1719 12.012 72.3674 11.542C72.4914 11.2446 72.613 10.9464 72.722 10.6445C72.9579 9.99234 73.5245 9.71349 74.1023 9.49189C74.5785 9.30896 75.0958 9.23163 75.5937 9.10075C75.7124 9.06952 75.8319 9.02342 75.9379 8.96244C76.1969 8.81297 76.2193 8.53189 75.9685 8.36532C75.7423 8.21585 75.4818 8.11918 75.2459 7.9831C74.907 7.78679 74.8532 7.58973 75.1473 7.34657C75.5639 7.00228 76.0394 6.72937 76.4813 6.41408C76.6888 6.2661 76.9352 6.12482 77.0591 5.91809C77.3749 5.39087 77.8347 5.06294 78.3624 4.79152C78.7476 4.59298 79.1186 4.36692 79.5031 4.16763C79.618 4.10814 79.7569 4.07096 79.8868 4.06575C80.2219 4.05088 80.5594 4.07616 80.8938 4.05088C81.0364 4.04047 81.2543 3.97578 81.2909 3.87911C81.3417 3.74674 81.2685 3.55712 81.2185 3.40097C81.1916 3.31619 81.102 3.25224 81.0423 3.18011C81.4753 2.78749 81.9008 2.40155 82.3427 2C82.3427 2.25283 82.336 2.49227 82.3442 2.73097C82.3614 3.22175 82.5577 3.3794 83.0257 3.24927C83.3079 3.17119 83.3243 3.38609 83.4154 3.53482C83.5311 3.72221 83.4176 3.80846 83.2668 3.87242C82.6383 4.14012 82.2927 4.61751 82.2068 5.28677C82.1658 5.60726 81.9993 5.72178 81.6694 5.69129C81.4954 5.67567 81.2058 5.7255 81.1565 5.83183C81.0856 5.98502 81.1222 6.26313 81.2267 6.4059C81.5626 6.86694 81.4663 7.238 81.1185 7.63212C80.7422 8.05821 80.64 8.54825 80.9012 9.07844C81.0908 9.46363 81.4268 9.54023 81.7485 9.25468C81.9612 9.0658 82.1441 8.84421 82.3464 8.64343C82.5928 8.39804 82.8436 8.36532 83.1377 8.59361C83.3788 8.781 83.6565 8.92228 83.9499 9.10447C83.8543 9.37514 83.7453 9.67408 83.6438 9.97524C83.4467 10.5582 83.4415 11.136 83.667 11.719C84.0798 12.7891 83.6774 14.4287 82.8257 15.2006C81.9948 15.9539 81.9769 16.1204 82.6256 17.0537C82.6465 17.0834 82.66 17.1191 82.6868 17.1712C82.6249 17.2232 82.5674 17.2842 82.498 17.3281C82.1658 17.5363 82.0747 17.8374 82.1762 18.1951C82.2262 18.3714 82.2957 18.5573 82.4084 18.6971C82.6749 19.0272 82.8107 19.3819 82.8399 19.8103C82.8712 20.2735 83.2131 20.4022 83.6102 20.1434C83.6722 20.1025 83.7289 20.0534 83.7886 20.0088C84.182 19.7158 84.3276 19.7887 84.4134 20.2661C84.4426 20.4275 84.562 20.6015 84.6911 20.7108C84.9449 20.9264 85.2338 21.1012 85.5041 21.29C85.2891 21.9072 85.4018 22.4084 85.9385 22.7959C86.2886 23.0479 86.3229 23.3402 86.2632 23.6986C86.2125 24.0042 86.1207 24.3054 86.1035 24.6125C86.0833 24.9657 86.1109 25.3241 86.1475 25.6774C86.161 25.8038 86.2289 25.9837 86.3259 26.0328C86.8343 26.2893 86.7186 26.7653 86.7865 27.1839C86.835 27.4828 86.9231 27.7758 87 28.0948C86.5723 28.0926 86.2207 27.9268 85.9228 27.6539C85.7504 27.4962 85.6108 27.3021 85.454 27.1267C84.871 26.4708 84.3209 25.7815 83.6961 25.168C82.3479 23.8443 81.6194 22.259 81.5096 20.3858C81.5022 20.2579 81.5193 20.0988 81.5902 20.0006C81.9724 19.4704 81.9829 18.8874 81.844 18.294C81.7254 17.7891 81.5761 17.2894 81.4021 16.8001C81.12 16.0037 80.219 15.4043 79.3754 15.4177C78.72 15.4274 78.4043 15.9115 78.6842 16.5079C78.8096 16.7741 78.9992 17.0098 79.1366 17.2708C79.2747 17.5333 79.3851 17.8107 79.5202 18.1104C79.2508 18.1104 79.0559 18.0576 78.9208 18.1252C78.7835 18.1936 78.6819 18.3684 78.6051 18.5179C78.4244 18.8711 78.2818 19.2273 77.8347 19.3656C77.719 19.4013 77.6018 19.7039 77.6249 19.8638C77.7048 20.4252 77.8257 20.9829 77.9698 21.5317C78.1049 22.0441 78.29 22.543 78.467 23.0903C78.3154 23.0598 78.2005 23.0338 78.0848 23.0137C77.7257 22.9528 77.4674 23.0821 77.2681 23.393C77.0486 23.7358 76.8337 24.0994 76.5403 24.3731C76.2999 24.5969 75.9603 24.7991 75.643 24.84C74.8853 24.9367 74.3419 25.3085 73.9425 25.9161C73.5342 26.537 73.1445 27.1713 72.7661 27.8108C72.6481 28.0101 72.5429 28.2398 72.5182 28.4652C72.3697 29.817 71.9046 31.0894 71.568 32.3944C71.4381 32.8978 71.397 33.4481 71.4418 33.9657C71.4963 34.591 71.8957 34.8424 72.5145 34.7316C72.7728 34.6855 72.9169 34.7316 73.0706 34.9502C73.4849 35.5406 73.9306 35.5079 74.2463 34.861C74.3852 34.5769 74.4904 34.2609 74.5308 33.9493C74.5778 33.5894 74.7219 33.4072 75.0899 33.4139C75.2265 33.4161 75.3631 33.4027 75.4997 33.4057C75.9655 33.4176 76.3178 33.6466 76.3126 34.1017C76.2999 35.1294 76.8075 35.9489 77.2532 36.8018C77.4077 37.0985 77.4756 37.4331 77.766 37.6703C77.8772 37.761 77.878 38.0421 77.8556 38.2273C77.7862 38.8014 77.8317 39.3412 78.0056 39.9064C78.1266 40.299 78.0601 40.7682 78.0026 41.1928C77.7996 42.7009 77.604 44.2119 77.3174 45.7051C77.227 46.178 76.8792 46.6093 76.6112 47.0354C76.5358 47.1558 76.3283 47.2451 76.1745 47.257C75.5773 47.3031 75.1384 47.5105 74.9376 48.1307C74.8458 48.4133 74.633 48.6565 74.4262 49C74.3098 48.7962 74.2195 48.684 74.1777 48.5561C73.8813 47.6548 73.9687 46.7721 74.3531 45.9162C74.477 45.6404 74.701 45.4626 75.0197 45.4567C75.2593 45.4522 75.3937 45.3496 75.4138 45.1087C75.5004 44.0751 75.6169 43.0437 75.6617 42.0086C75.6833 41.5148 75.5236 41.0456 74.9548 40.8693C74.4143 40.7013 73.9993 40.9296 73.6618 41.3081C73.3737 41.6308 73.1356 41.9967 72.8706 42.3402C72.7743 42.4651 72.6645 42.5811 72.5197 42.7477C72.407 42.5856 72.2928 42.4711 72.2376 42.3343C72.0211 41.7974 71.5933 41.607 71.0574 41.5892C70.399 41.5676 69.7391 41.5825 69.0829 41.5371C68.4514 41.4932 68.4402 41.459 68.4305 40.847C68.4178 40.0298 68.0722 39.4171 67.322 39.0616C66.1306 38.4965 64.8623 38.2704 63.556 38.3195C62.6273 38.3545 62.0936 38.8921 62.1832 39.8134C62.2922 40.9259 62.1638 41.9773 61.8047 43.0214C61.7413 43.2058 61.7413 43.4118 61.7144 43.6081C61.6726 43.9174 61.4098 44.087 61.1366 43.9494C60.6902 43.7248 60.2498 43.7025 59.7638 43.8215C59.569 43.8691 59.3055 43.7687 59.1114 43.6653C58.5433 43.3634 58.2828 43.3716 57.8058 43.8014C57.6125 43.9754 57.4378 44.1702 57.2504 44.3517C56.3352 45.2336 55.0998 45.4255 53.9413 44.8923C53.5262 44.7012 53.0948 44.5391 52.6588 44.4008C52.1236 44.2312 51.5742 44.2513 51.0434 44.4312C50.6739 44.5562 50.3738 44.4595 50.1357 44.1881C49.8259 43.8341 49.5743 43.4251 49.2407 43.0972C48.9122 42.7745 48.5479 42.4421 48.1351 42.2599C47.3931 41.932 46.7034 42.3365 46.5115 43.1225C46.4794 43.2549 46.4578 43.3902 46.4436 43.5255C46.3884 44.0446 46.3906 44.055 45.8733 44.0654C45.2238 44.0788 44.596 44.1293 43.9877 44.4194C43.4718 44.6647 42.9306 44.4015 42.638 43.9048C42.5365 43.7323 42.376 43.5716 42.2043 43.4683C41.6698 43.1478 41.0764 43.1076 40.4725 43.1939C40.3538 43.211 40.2441 43.2831 40.1291 43.3277C39.8828 43.4237 39.6431 43.556 39.3878 43.6036C39.0639 43.6646 38.8019 43.762 38.6339 44.0713C38.5854 44.1613 38.4107 44.2647 38.3256 44.2424C37.706 44.0788 37.0902 43.8966 36.481 43.6951C36.2362 43.614 36.1391 43.4184 36.1474 43.1396C36.1772 42.1558 35.7338 41.4583 34.8209 41.0619C34.3327 40.85 33.8534 40.6425 33.4884 40.2105C33.3727 40.0826 33.0345 40.1369 32.7404 40.0967Z" stroke="white" stroke-miterlimit="10"/>
</svg>
